<svg width="100%" viewBox="0 0 680 420" role="img" xmlns="http://www.w3.org/2000/svg">
<title>CineSense AI repository structure</title>
<desc>Folder tree showing 01-Data, 02-Assets, 03-Core, 04-Visuals folders and app.py at root</desc>
<defs>
  <style>
    text { font-family: 'SFMono-Regular', 'Consolas', 'Liberation Mono', monospace; }
    .folder-label { font-size: 13px; font-weight: 600; }
    .file-label   { font-size: 12px; font-weight: 400; }
    .tag          { font-size: 10px; font-weight: 600; }
    .root-label   { font-size: 14px; font-weight: 700; }
  </style>
</defs>

<!-- background card -->
<rect x="20" y="20" width="640" height="380" rx="12" fill="#0d1117" stroke="#30363d" stroke-width="1"/>

<!-- top bar dots -->
<circle cx="48" cy="44" r="6" fill="#ff5f57"/>
<circle cx="68" cy="44" r="6" fill="#febc2e"/>
<circle cx="88" cy="44" r="6" fill="#28c840"/>
<text x="340" y="48" text-anchor="middle" font-family="monospace" font-size="11" fill="#8b949e">CineSense-AI — repository structure</text>

<!-- divider -->
<line x1="20" y1="58" x2="660" y2="58" stroke="#30363d" stroke-width="0.5"/>

<!-- ROOT -->
<text x="56" y="88" class="root-label" fill="#e6edf3">CineSense-AI/</text>

<!-- ── 01-Data ── -->
<line x1="70" y1="100" x2="70" y2="156" stroke="#30363d" stroke-width="1"/>
<line x1="70" y1="118" x2="90" y2="118" stroke="#30363d" stroke-width="1"/>
<rect x="94" y="106" width="110" height="24" rx="4" fill="#1c2128" stroke="#30363d" stroke-width="0.5"/>
<text x="104" y="122" class="folder-label" fill="#79c0ff">01-Data/</text>

<line x1="108" y1="130" x2="108" y2="158" stroke="#21262d" stroke-width="1"/>
<line x1="108" y1="144" x2="124" y2="144" stroke="#21262d" stroke-width="1"/>
<text x="128" y="148" class="file-label" fill="#8b949e">netflix_titles.csv</text>
<rect x="306" y="136" width="90" height="18" rx="9" fill="#1f3d2a" stroke="#2ea043" stroke-width="0.5"/>
<text x="351" y="148" text-anchor="middle" class="tag" fill="#3fb950">8,800+ rows</text>

<!-- ── 02-Assets ── -->
<line x1="70" y1="170" x2="70" y2="226" stroke="#30363d" stroke-width="1"/>
<line x1="70" y1="188" x2="90" y2="188" stroke="#30363d" stroke-width="1"/>
<rect x="94" y="176" width="120" height="24" rx="4" fill="#1c2128" stroke="#30363d" stroke-width="0.5"/>
<text x="104" y="192" class="folder-label" fill="#79c0ff">02-Assets/</text>

<line x1="108" y1="200" x2="108" y2="230" stroke="#21262d" stroke-width="1"/>
<line x1="108" y1="214" x2="124" y2="214" stroke="#21262d" stroke-width="1"/>
<text x="128" y="218" class="file-label" fill="#8b949e">Cinesense Github Design.jpg</text>
<line x1="108" y1="214" x2="108" y2="240" stroke="#21262d" stroke-width="0.5" stroke-dasharray="2 2"/>
<line x1="108" y1="234" x2="124" y2="234" stroke="#21262d" stroke-width="1"/>
<text x="128" y="238" class="file-label" fill="#8b949e">architecture.svg</text>

<!-- ── 03-Core ── -->
<line x1="70" y1="250" x2="70" y2="318" stroke="#30363d" stroke-width="1"/>
<line x1="70" y1="268" x2="90" y2="268" stroke="#30363d" stroke-width="1"/>
<rect x="94" y="256" width="108" height="24" rx="4" fill="#1c2128" stroke="#30363d" stroke-width="0.5"/>
<text x="104" y="272" class="folder-label" fill="#79c0ff">03-Core/</text>

<line x1="108" y1="280" x2="108" y2="308" stroke="#21262d" stroke-width="1"/>
<line x1="108" y1="293" x2="124" y2="293" stroke="#21262d" stroke-width="1"/>
<text x="128" y="297" class="file-label" fill="#8b949e">day1_eda.ipynb</text>
<rect x="306" y="284" width="118" height="18" rx="9" fill="#1a2a3a" stroke="#1f6feb" stroke-width="0.5"/>
<text x="365" y="296" text-anchor="middle" class="tag" fill="#58a6ff">Day 1 — EDA</text>

<line x1="108" y1="293" x2="108" y2="320" stroke="#21262d" stroke-width="0.5" stroke-dasharray="2 2"/>
<line x1="108" y1="313" x2="124" y2="313" stroke="#21262d" stroke-width="1"/>
<text x="128" y="317" class="file-label" fill="#8b949e">day2_embeddings.ipynb</text>
<rect x="306" y="305" width="152" height="18" rx="9" fill="#1a2a3a" stroke="#1f6feb" stroke-width="0.5"/>
<text x="382" y="317" text-anchor="middle" class="tag" fill="#58a6ff">Day 2 — Embeddings</text>

<line x1="108" y1="313" x2="108" y2="336" stroke="#21262d" stroke-width="0.5" stroke-dasharray="2 2"/>
<line x1="108" y1="332" x2="124" y2="332" stroke="#21262d" stroke-width="1"/>
<text x="128" y="336" class="file-label" fill="#8b949e">day3_retrieval.ipynb</text>
<rect x="306" y="324" width="144" height="18" rx="9" fill="#1a2a3a" stroke="#1f6feb" stroke-width="0.5"/>
<text x="378" y="336" text-anchor="middle" class="tag" fill="#58a6ff">Day 3 — Retrieval</text>

<line x1="108" y1="332" x2="108" y2="352" stroke="#21262d" stroke-width="0.5" stroke-dasharray="2 2"/>
<line x1="108" y1="350" x2="124" y2="350" stroke="#21262d" stroke-width="1"/>
<text x="128" y="354" class="file-label" fill="#8b949e">day4_chunking.ipynb</text>
<rect x="306" y="342" width="144" height="18" rx="9" fill="#2a1f0a" stroke="#9e6a03" stroke-width="0.5"/>
<text x="378" y="354" text-anchor="middle" class="tag" fill="#e3b341">Day 4 — Chunking</text>

<!-- ── 04-Visuals ── -->
<line x1="70" y1="368" x2="90" y2="368" stroke="#30363d" stroke-width="1"/>
<rect x="94" y="356" width="120" height="24" rx="4" fill="#1c2128" stroke="#30363d" stroke-width="0.5"/>
<text x="104" y="372" class="folder-label" fill="#79c0ff">04-Visuals/</text>
<text x="228" y="372" class="file-label" fill="#6e7681">EDA charts output</text>

<!-- ── root files ── -->
<line x1="70" y1="390" x2="90" y2="390" stroke="#30363d" stroke-width="0.5" stroke-dasharray="2 2"/>
<text x="94" y="390" class="file-label" fill="#e6edf3">app.py</text>
<rect x="148" y="381" width="100" height="18" rx="9" fill="#1f2d1f" stroke="#3fb950" stroke-width="0.5"/>
<text x="198" y="393" text-anchor="middle" class="tag" fill="#3fb950">entry point</text>

</svg>
